<?xml version="1.0" encoding="UTF-8" standalone="no"?>
<!-- Created with Inkscape (http://www.inkscape.org/) -->

<svg
   xmlns:dc="http://purl.org/dc/elements/1.1/"
   xmlns:cc="http://creativecommons.org/ns#"
   xmlns:rdf="http://www.w3.org/1999/02/22-rdf-syntax-ns#"
   xmlns:svg="http://www.w3.org/2000/svg"
   xmlns="http://www.w3.org/2000/svg"
   xmlns:sodipodi="http://sodipodi.sourceforge.net/DTD/sodipodi-0.dtd"
   xmlns:inkscape="http://www.inkscape.org/namespaces/inkscape"
   width="210mm"
   height="297mm"
   viewBox="0 0 210 297"
   version="1.1"
   id="svg4535"
   inkscape:version="0.92.1 r"
   sodipodi:docname="Icon_Early.svg">
  <defs
     id="defs4529">
    <clipPath
       clipPathUnits="userSpaceOnUse"
       id="clipPath5184">
      <path
         style="opacity:0.5;fill:none;fill-opacity:1;stroke:#0000ff;stroke-width:13.22916603;stroke-linecap:round;stroke-linejoin:round;stroke-miterlimit:4;stroke-dasharray:none;stroke-opacity:1;paint-order:stroke markers fill"
         d="m 99.351042,99.645081 a 46.145569,46.145569 0 0 0 -46.145503,46.145499 46.145569,46.145569 0 0 0 46.145503,46.1455 46.145569,46.145569 0 0 0 46.145498,-46.1455 46.145569,46.145569 0 0 0 -46.145498,-46.145499 z m 0,5.322669 a 40.823078,40.823078 0 0 1 40.822828,40.82283 40.823078,40.823078 0 0 1 -40.822828,40.82283 40.823078,40.823078 0 0 1 -40.822833,-40.82283 40.823078,40.823078 0 0 1 40.822833,-40.82283 z"
         id="path5186"
         inkscape:connector-curvature="0" />
    </clipPath>
  </defs>
  <sodipodi:namedview
     id="base"
     pagecolor="#ffffff"
     bordercolor="#666666"
     borderopacity="1.0"
     inkscape:pageopacity="0.0"
     inkscape:pageshadow="2"
     inkscape:zoom="0.70710678"
     inkscape:cx="421.80715"
     inkscape:cy="679.10877"
     inkscape:document-units="mm"
     inkscape:current-layer="layer1"
     showgrid="false"
     inkscape:object-paths="false"
     inkscape:snap-nodes="false"
     inkscape:window-width="1861"
     inkscape:window-height="1051"
     inkscape:window-x="59"
     inkscape:window-y="0"
     inkscape:window-maximized="1" />
  <metadata
     id="metadata4532">
    <rdf:RDF>
      <cc:Work
         rdf:about="">
        <dc:format>image/svg+xml</dc:format>
        <dc:type
           rdf:resource="http://purl.org/dc/dcmitype/StillImage" />
        <dc:title></dc:title>
      </cc:Work>
    </rdf:RDF>
  </metadata>
  <g
     inkscape:label="Layer 1"
     inkscape:groupmode="layer"
     id="layer1">
    <path
       style="color:#000000;font-style:normal;font-variant:normal;font-weight:normal;font-stretch:normal;font-size:medium;line-height:normal;font-family:sans-serif;font-variant-ligatures:normal;font-variant-position:normal;font-variant-caps:normal;font-variant-numeric:normal;font-variant-alternates:normal;font-feature-settings:normal;text-indent:0;text-align:start;text-decoration:none;text-decoration-line:none;text-decoration-style:solid;text-decoration-color:#000000;letter-spacing:normal;word-spacing:normal;text-transform:none;writing-mode:lr-tb;direction:ltr;text-orientation:mixed;dominant-baseline:auto;baseline-shift:baseline;text-anchor:start;white-space:normal;shape-padding:0;clip-rule:nonzero;display:inline;overflow:visible;visibility:visible;opacity:0.5;isolation:auto;mix-blend-mode:normal;color-interpolation:sRGB;color-interpolation-filters:linearRGB;solid-color:#000000;solid-opacity:1;vector-effect:none;fill:#0000ff;fill-opacity:1;fill-rule:nonzero;stroke:none;stroke-width:45.98812485;stroke-linecap:round;stroke-linejoin:round;stroke-miterlimit:4;stroke-dasharray:none;stroke-dashoffset:0;stroke-opacity:1;paint-order:stroke markers fill;color-rendering:auto;image-rendering:auto;shape-rendering:auto;text-rendering:auto;enable-background:accumulate"
       d="M 354.29883 333.51758 L 354.29883 368.84766 C 270.16449 378.60803 203.08849 445.68401 193.32812 529.81836 L 157.99805 529.81836 L 157.99805 572.2168 L 193.32812 572.2168 C 203.08529 656.35386 270.16192 723.42771 354.29883 733.1875 L 354.29883 768.51758 L 396.69727 768.51758 L 396.69727 733.1875 C 480.83692 723.43091 547.9114 656.35643 557.66797 572.2168 L 592.99805 572.2168 L 592.99805 529.81836 L 557.66797 529.81836 C 547.9082 445.68144 480.83435 378.60482 396.69727 368.84766 L 396.69727 333.51758 L 354.29883 333.51758 z M 375.50195 402.59961 C 457.76616 402.59976 523.92368 468.75724 523.92383 551.02148 C 523.92368 633.2857 457.76616 699.44321 375.50195 699.44336 C 293.23774 699.44321 227.08019 633.28566 227.08008 551.02148 C 227.08019 468.75728 293.23774 402.59976 375.50195 402.59961 z "
       transform="scale(0.26458333)"
       id="path5219" />
    <path
       style="opacity:0.5;fill:#0000ff;fill-rule:evenodd;stroke:#0000ff;stroke-width:2.64583325;stroke-linecap:round;stroke-linejoin:round;stroke-miterlimit:4;stroke-dasharray:none;stroke-opacity:1"
       d="M 59.615627,75.54375 99.615626,22.097918 139.61562,75.54375 Z"
       id="path5099"
       inkscape:connector-curvature="0" />
    <path
       id="path5138"
       d="M 99.350525,125.33133 A 20.45877,20.45877 0 0 0 78.891784,145.79007 20.45877,20.45877 0 0 0 99.350525,166.24881 20.45877,20.45877 0 0 0 119.80926,145.79007 20.45877,20.45877 0 0 0 99.350525,125.33133 Z"
       style="opacity:0.5;fill:#0000ff;fill-opacity:1;stroke:#0000ff;stroke-width:5.86518812;stroke-linecap:round;stroke-linejoin:round;stroke-miterlimit:4;stroke-dasharray:none;stroke-opacity:1;paint-order:stroke markers fill"
       inkscape:connector-curvature="0" />
  </g>
</svg>
